<svg width="293" height="38" viewBox="0 0 293 38" fill="none" xmlns="http://www.w3.org/2000/svg">
<path d="M19.8402 0C8.50324 0 0 8.50964 0 19.0019V19.1066C0 29.5989 8.39807 38 19.735 38C31.0719 38 39.5752 29.4942 39.5752 19.002V18.8973C39.5752 15.5089 38.6881 12.3448 37.1202 9.60459H45.7672V37.2716H55.9522V9.60459H64.9266V37.2716H75.1096V23.3858H88.0473V37.2716H117.862H126.731V26.2044H131.088H131.193L138.593 37.2716H150.35H157.961V26.8321H163C168.996 26.8321 173.912 24.8606 176.593 21.0784V37.2716H204.568H210.182L212.808 30.7462H226.98L229.655 37.2716H240.573H247.709V17.2255L263.189 36.9952V37.2718H263.405H272.326H293V28.66H273.267V22.8629H290.9V14.8768H273.267V9.34424H292.738V0.730449H272.326H263.189H262.248V20.0443L247.134 0.730449H237.633V30.3535L224.932 0.467946H215.116L203.248 28.3975H186.774V0.730449H176.593V6.21968C174.059 2.69029 169.476 0.730449 163.524 0.730449H147.78V7.21252C147.282 6.28146 146.655 5.44125 145.889 4.69788C143.422 2.19224 139.538 0.730449 133.922 0.730449H117.6H88.0472V14.4091H75.1095V0.730449H66.9726H34.7465V6.35589C31.1984 2.45733 25.9547 0 19.8402 0ZM19.735 9.13483C25.3509 9.13483 29.1837 13.7297 29.1837 19.0019V19.1066C29.1837 24.3789 25.4561 28.8651 19.8401 28.8651C14.2766 28.8651 10.4449 24.2742 10.4449 19.002V18.8973C10.4449 13.6252 14.1715 9.13483 19.735 9.13483ZM157.961 9.23951H162.736C166.41 9.23951 168.614 10.9097 168.614 14.0418V14.1464C168.614 17.0174 166.411 18.8974 162.79 18.8974H157.961V9.23951ZM98.3573 9.34412H116.548V28.66H98.3573V28.6561H98.3458V23.2005H98.3573V22.8628H106.216V14.8768H98.3573V14.8275H98.3458V9.36989H98.3573V9.34412ZM126.731 9.49997H133.398C136.809 9.49997 138.907 10.9615 138.907 13.8325V13.9372C138.907 16.5994 136.915 18.2697 133.451 18.2697H126.731V9.49997ZM219.944 12.4765L224.041 22.8627H215.801L219.944 12.4765ZM147.78 19.1361V33.5371L141.584 24.5345C144.315 23.3792 146.479 21.5837 147.78 19.1361Z" fill="white"/>
</svg>
